<svg width="673" height="670" viewBox="0 0 673 670" fill="none" xmlns="http://www.w3.org/2000/svg">
<g clip-path="url(#clip0_1_96)">
<path d="M244.301 88.9341C242.638 86.1297 235.443 89.1325 234.12 86.5873C232.802 84.0514 239.487 80.1875 243.306 71.3606C243.995 69.7688 248.335 59.7377 245.122 56.6425C239.032 50.7755 211.162 74.9871 201.409 67.0639C199.269 65.3251 197.773 61.8539 191.295 56.2181C188.718 53.9761 187.16 52.9638 185.652 53.3405C183.512 53.8748 183.342 56.7389 181.047 62.3703C177.606 70.8157 175.57 70.3058 173.565 77.0438C172.077 82.0458 172.417 84.9539 170.665 85.5205C168.187 86.3222 165.905 81.0167 162.764 81.4917C159.559 81.9766 157.621 88.1539 157.009 92.7791C155.86 101.458 159.048 107.186 160.814 113.208C162.734 119.753 163.874 129.705 159.44 143.795L115.557 267.436C125.245 242.066 153.296 172.518 165.084 146.673C168.486 139.212 172.244 131.645 179.958 128.658C187.385 125.782 197.586 127.499 210.59 124.366C212.109 124.001 216.324 122.928 216.854 120.449C217.293 118.4 214.814 117.256 215.194 115.336C215.705 112.762 220.58 112.73 226.571 109.76C230.795 107.665 233.427 105.174 235.69 103.032C236.373 102.386 246.515 92.6673 244.301 88.9341Z" fill="#F2F2F2"/>
<path d="M71.6512 154.024C69.7949 154.031 69.1927 158.429 67.5619 158.344C65.9369 158.259 65.9693 153.863 62.739 149.442C62.1565 148.644 58.4855 143.62 56.0392 144.304C51.4024 145.6 55.2443 166.265 48.5415 168.765C47.0705 169.314 44.9353 169.047 40.3002 170.6C38.4562 171.218 37.5097 171.691 37.2594 172.54C36.9042 173.744 38.261 174.654 40.3628 177.405C43.5149 181.531 42.6773 182.382 45.4059 185.311C47.4314 187.484 48.9568 188.157 48.7295 189.18C48.4079 190.628 45.1456 190.217 44.4724 191.895C43.7856 193.608 46.2583 196.342 48.3517 197.977C52.2802 201.045 56.0108 201.133 59.4763 202.003C63.2424 202.949 68.4561 205.262 74.0922 211.503L122.114 268.716C112.458 256.641 86.4167 222.806 77.133 209.564C74.453 205.741 71.8229 201.714 72.5829 197.065C73.3146 192.59 77.1004 188.079 79.3149 180.793C79.5736 179.942 80.2633 177.564 79.1997 176.588C78.3204 175.782 77.0437 176.668 76.2115 175.927C75.0953 174.934 76.4863 172.532 76.7569 168.735C76.9477 166.057 76.4845 164.047 76.0861 162.318C75.966 161.797 74.1222 154.015 71.6512 154.024Z" fill="#F2F2F2"/>
<path d="M108.684 162.337L107.566 152.353L108.077 151.597C110.441 148.097 111.646 144.679 111.661 141.435C111.663 140.919 111.639 140.403 111.615 139.877C111.519 137.795 111.398 135.206 112.748 132.189C113.505 130.506 115.631 126.611 118.827 127.093C119.687 127.214 120.338 127.609 120.832 128.072C120.905 127.956 120.979 127.84 121.059 127.715C122.054 126.196 122.842 125.546 123.602 124.919C124.185 124.437 124.788 123.94 125.732 122.764C126.147 122.248 126.47 121.795 126.742 121.414C127.569 120.262 128.649 118.888 130.553 118.912C132.587 119.009 133.653 120.691 134.359 121.805C135.62 123.791 136.191 125.223 136.569 126.172C136.707 126.519 136.863 126.91 136.943 127.03C137.599 127.994 142.928 127.093 144.936 126.765C149.445 126.013 153.348 125.362 154.955 128.207C156.108 130.241 155.252 132.931 152.335 136.416C151.427 137.501 150.46 138.325 149.602 138.971C150.313 139.395 150.949 140.046 151.207 141.068C151.815 143.488 149.735 145.913 145.027 148.285C143.858 148.878 142.284 149.668 140.079 150.049C139.04 150.228 138.105 150.271 137.304 150.295C137.288 150.758 137.179 151.259 136.897 151.775C136.07 153.293 134.349 154.017 131.756 153.843C128.902 153.694 126.552 153.149 124.479 152.672C122.669 152.257 121.109 151.905 119.885 151.987C117.614 152.17 115.864 153.988 113.811 156.345L108.684 162.337Z" fill="#F2F2F2"/>
<path d="M113.872 102.894L104.499 106.509L103.637 106.206C99.6518 104.807 96.04 104.508 92.8981 105.317C92.3986 105.445 91.9058 105.6 91.4036 105.756C89.4137 106.378 86.9401 107.151 83.6787 106.611C81.8593 106.305 77.5524 105.237 77.208 102.023C77.1063 101.16 77.3236 100.43 77.646 99.835C77.5157 99.7944 77.3848 99.7515 77.2434 99.7063C75.5221 99.1286 74.6927 98.5313 73.8938 97.9558C73.2796 97.5138 72.6464 97.0569 71.269 96.4413C70.6649 96.1711 70.1447 95.9736 69.7072 95.8068C68.383 95.2993 66.7802 94.6032 66.3205 92.7552C65.8978 90.763 67.255 89.3057 68.153 88.3401C69.7544 86.6169 70.9944 85.7012 71.817 85.0943C72.1179 84.8733 72.4559 84.6227 72.5523 84.5152C73.3186 83.6365 71.0948 78.7102 70.2685 76.8512C68.3972 72.6797 66.7778 69.0701 69.1212 66.7935C70.7968 65.163 73.6158 65.3084 77.727 67.2455C79.0067 67.8494 80.0492 68.5752 80.8917 69.2414C81.1217 68.446 81.5898 67.6654 82.513 67.1567C84.6997 65.9554 87.5729 67.3524 91.0611 71.3042C91.9312 72.2846 93.0952 73.6065 94.023 75.6432C94.459 76.6029 94.7382 77.4965 94.9645 78.2645C95.4164 78.1634 95.9289 78.1412 96.4994 78.2831C98.1779 78.6977 99.3139 80.1789 99.8039 82.7317C100.383 85.5301 100.452 87.9415 100.517 90.0676C100.575 91.9238 100.63 93.5215 101.02 94.6851C101.773 96.8349 103.975 98.0666 106.776 99.4551L113.872 102.894Z" fill="#F2F2F2"/>
<path d="M108.684 73.4822L107.566 63.4986L108.077 62.7417C110.441 59.2419 111.646 55.824 111.661 52.5797C111.663 52.0639 111.639 51.548 111.615 51.0226C111.519 48.9401 111.398 46.3514 112.748 43.3337C113.505 41.6513 115.631 37.7561 118.827 38.2382C119.687 38.3587 120.338 38.754 120.832 39.2167C120.905 39.1011 120.979 38.9854 121.059 38.86C122.054 37.3415 122.842 36.6907 123.602 36.064C124.185 35.582 124.788 35.0855 125.732 33.9092C126.147 33.3934 126.47 32.9402 126.742 32.5594C127.569 31.4073 128.649 30.0333 130.553 30.0574C132.587 30.1539 133.653 31.8363 134.359 32.9499C135.62 34.936 136.191 36.3677 136.569 37.3174C136.707 37.6645 136.863 38.0549 136.943 38.1755C137.599 39.1396 142.928 38.2381 144.936 37.9103C149.445 37.1583 153.348 36.5075 154.955 39.3517C156.108 41.386 155.252 44.0759 152.335 47.5613C151.427 48.646 150.46 49.4703 149.602 50.1163C150.313 50.5406 150.949 51.1913 151.207 52.2133C151.815 54.6333 149.735 57.0581 145.027 59.4299C143.858 60.0228 142.284 60.8135 140.079 61.1943C139.04 61.3727 138.105 61.4161 137.304 61.4402C137.288 61.903 137.179 62.4043 136.897 62.9201C136.07 64.4386 134.349 65.1617 131.756 64.9882C128.902 64.8387 126.552 64.294 124.479 63.8168C122.669 63.4022 121.109 63.0503 119.885 63.1322C117.614 63.3154 115.864 65.1328 113.811 67.4901L108.684 73.4822Z" fill="#F2F2F2"/>
<path d="M118.899 267.274L116.807 265.963L114.368 266.242C114.329 266.016 114.196 265.495 113.996 264.68C112.905 260.216 109.576 246.632 106.799 225.237C104.861 210.303 103.765 194.949 103.538 179.595C103.311 164.217 104.039 152.575 104.623 143.218C105.064 136.161 105.599 129.441 106.124 122.894C107.522 105.405 108.841 88.8843 107.86 70.5946C107.643 66.5115 107.187 58.0126 102.222 48.969C99.3415 43.7241 95.3741 39.0673 90.4281 35.1337L93.5037 31.2675C98.9631 35.6157 103.352 40.7739 106.551 46.5973C112.056 56.6243 112.553 65.8849 112.791 70.3344C113.789 88.947 112.456 105.627 111.044 123.285C110.523 129.807 109.988 136.498 109.549 143.527C108.971 152.797 108.25 164.338 108.474 179.518C108.696 194.689 109.781 209.855 111.692 224.601C114.435 245.725 117.716 259.108 118.793 263.504C119.367 265.852 119.487 266.343 118.899 267.274Z" fill="#F2F2F2"/>
<path d="M81.3748 42.977C81.1723 42.977 80.9674 42.9722 80.7601 42.9577C76.5565 42.7311 72.6638 40.2147 69.1881 35.4808C67.5587 33.2536 66.7247 30.7132 65.0616 25.6466C64.8037 24.8656 63.5503 20.9031 62.7886 15.4509C62.2896 11.8883 62.3523 10.3988 63.0586 9.08274C63.842 7.61724 65.1098 6.59527 66.5367 5.90593C66.4741 5.43348 66.5246 4.9466 66.7295 4.45005C67.5707 2.39163 69.8075 2.66161 71.0175 2.79176C71.6298 2.86889 72.3938 2.97012 73.2182 2.92672C74.515 2.86408 75.2116 2.47838 76.2673 1.89988C77.2772 1.34549 78.533 0.656153 80.3962 0.275313C84.0696 -0.491167 87.1476 0.550103 88.1623 0.892343C93.5012 2.67116 96.1333 6.82179 99.18 11.628C99.7874 12.5921 101.872 16.1016 103.249 20.9126C104.242 24.3835 104.102 25.9261 103.803 27.0735C103.196 29.4308 101.761 30.7806 98.1194 33.7598C94.3159 36.8787 92.4069 38.4407 90.7678 39.3903C86.9523 41.5934 84.5564 42.977 81.3748 42.977Z" fill="#F2F2F2"/>
<path d="M286.706 663.479C286.706 664.139 287.236 664.669 287.896 664.669H535.186C535.846 664.669 536.376 664.139 536.376 663.479C536.376 663.159 536.256 662.879 536.056 662.669H446.336C444.426 662.669 442.556 662.539 440.716 662.289H287.896C287.236 662.289 286.706 662.819 286.706 663.479Z" fill="#3F3D56"/>
<path d="M167.23 452.944H304.899C328.222 452.944 347.129 471.851 347.129 495.174V605.607C347.129 628.93 328.222 647.837 304.899 647.837H167.23C143.907 647.837 125 628.93 125 605.607V495.174C125 471.851 143.907 452.944 167.23 452.944Z" fill="white"/>
<path d="M124 605.607V495.174C124 471.337 143.393 451.944 167.23 451.944H304.899C328.736 451.944 348.129 471.337 348.129 495.174V605.607C348.129 629.444 328.736 648.836 304.899 648.836H167.23C143.393 648.836 124 629.444 124 605.607ZM167.23 453.944C144.496 453.944 126 472.44 126 495.174V605.607C126 628.341 144.496 646.836 167.23 646.836H304.899C327.633 646.836 346.129 628.341 346.129 605.607V495.174C346.129 472.44 327.633 453.944 304.899 453.944H167.23Z" fill="#3F3D56"/>
<path d="M218.701 501.297H249.536L217.526 596.14C216.851 598.138 214.978 599.484 212.868 599.484H188.871C186.16 599.485 183.962 597.287 183.961 594.576C183.961 594.042 184.048 593.512 184.219 593.007L214.042 504.641C214.716 502.642 216.591 501.296 218.701 501.295L218.701 501.297Z" fill="url(#paint0_linear_1_96)"/>
<path d="M263.51 564.911H214.612C213.362 564.91 212.347 565.922 212.346 567.172C212.345 567.801 212.606 568.401 213.066 568.83L244.487 598.157C245.402 599.01 246.606 599.485 247.857 599.484H275.545L263.51 564.911Z" fill="#0078D4"/>
<path d="M218.701 501.297C216.566 501.288 214.674 502.67 214.031 504.706L184.256 592.926C183.341 595.475 184.666 598.282 187.215 599.196C187.75 599.389 188.315 599.486 188.884 599.484H213.501C215.367 599.151 216.91 597.839 217.539 596.05L223.477 578.55L244.687 598.333C245.576 599.069 246.691 599.475 247.844 599.484H275.429L263.331 564.911L228.062 564.92L249.648 501.297L218.701 501.297Z" fill="url(#paint1_linear_1_96)"/>
<path d="M258.086 504.636C257.412 502.64 255.54 501.296 253.434 501.297H219.068C221.174 501.297 223.046 502.64 223.72 504.636L253.544 593.005C254.411 595.575 253.032 598.36 250.462 599.228C249.956 599.398 249.426 599.485 248.892 599.485H283.259C285.971 599.485 288.169 597.286 288.168 594.574C288.168 594.041 288.081 593.511 287.91 593.005L258.086 504.636Z" fill="url(#paint2_linear_1_96)"/>
<path d="M43.2301 206.944H180.899C204.222 206.944 223.129 225.851 223.129 249.174V359.607C223.129 382.93 204.222 401.837 180.899 401.837H43.2301C19.9071 401.837 1.00012 382.93 1.00012 359.607V249.174C1.00012 225.851 19.9071 206.944 43.2301 206.944Z" fill="white"/>
<path d="M0 359.607V249.175C0 225.338 19.3931 205.945 43.23 205.945H180.899C204.736 205.945 224.129 225.338 224.129 249.175V359.607C224.129 383.444 204.736 402.837 180.899 402.837H43.23C19.3931 402.837 0 383.444 0 359.607ZM43.23 207.945C20.4956 207.945 2 226.44 2 249.175V359.607C2 382.342 20.4956 400.837 43.23 400.837H180.899C203.633 400.837 222.129 382.342 222.129 359.607V249.175C222.129 226.44 203.633 207.945 180.899 207.945L43.23 207.945Z" fill="#3F3D56"/>
<path d="M84.5689 306.08C84.5689 307.631 84.7365 308.889 85.0299 309.811C85.3652 310.733 85.7843 311.739 86.3711 312.828C86.5806 313.164 86.6645 313.499 86.6645 313.792C86.6645 314.211 86.413 314.63 85.8681 315.05L83.2277 316.81C82.8505 317.061 82.4733 317.187 82.138 317.187C81.7189 317.187 81.2998 316.977 80.8807 316.6C80.2939 315.972 79.791 315.301 79.3718 314.63C78.9527 313.918 78.5336 313.122 78.0726 312.158C74.8035 316.013 70.6961 317.941 65.7505 317.941C62.23 317.941 59.4219 316.936 57.3682 314.924C55.3145 312.912 54.2667 310.23 54.2667 306.877C54.2667 303.314 55.5241 300.422 58.0807 298.243C60.6373 296.063 64.0321 294.974 68.349 294.974C69.774 294.974 71.241 295.1 72.7917 295.309C74.3424 295.519 75.9351 295.854 77.6115 296.231V293.172C77.6115 289.986 76.9409 287.765 75.6417 286.466C74.3005 285.166 72.0373 284.538 68.8101 284.538C67.3432 284.538 65.8343 284.705 64.2836 285.083C62.7329 285.46 61.2241 285.921 59.7571 286.508C59.0866 286.801 58.5836 286.969 58.2902 287.053C57.9969 287.136 57.7873 287.178 57.6196 287.178C57.0329 287.178 56.7395 286.759 56.7395 285.879V283.825C56.7395 283.155 56.8233 282.652 57.0329 282.358C57.2424 282.065 57.6196 281.772 58.2064 281.478C59.6733 280.724 61.4336 280.095 63.4873 279.592C65.5409 279.047 67.7204 278.796 70.0255 278.796C75.013 278.796 78.6593 279.927 81.0064 282.191C83.3115 284.454 84.485 287.891 84.485 292.501V306.08L84.5689 306.08ZM67.5527 312.451C68.9358 312.451 70.3608 312.2 71.8696 311.697C73.3785 311.194 74.7196 310.272 75.8512 309.014C76.5218 308.218 77.0248 307.338 77.2762 306.332C77.5277 305.326 77.6954 304.111 77.6954 302.686V300.925C76.4799 300.632 75.1807 300.38 73.8395 300.213C72.4983 300.045 71.199 299.961 69.8998 299.961C67.0917 299.961 65.038 300.506 63.6549 301.638C62.2719 302.769 61.6013 304.362 61.6013 306.458C61.6013 308.428 62.1042 309.894 63.152 310.9C64.1579 311.948 65.6248 312.451 67.5527 312.451ZM101.208 316.977C100.453 316.977 99.9505 316.852 99.6152 316.558C99.2799 316.307 98.9865 315.72 98.735 314.924L88.8858 282.526C88.6343 281.688 88.5086 281.143 88.5086 280.85C88.5086 280.179 88.8439 279.802 89.5145 279.802H93.6218C94.4181 279.802 94.963 279.928 95.2564 280.221C95.5917 280.472 95.8431 281.059 96.0946 281.855L103.136 309.601L109.674 281.855C109.884 281.017 110.135 280.472 110.47 280.221C110.806 279.969 111.392 279.802 112.147 279.802H115.5C116.296 279.802 116.841 279.928 117.176 280.221C117.511 280.472 117.805 281.059 117.973 281.855L124.595 309.936L131.845 281.855C132.097 281.017 132.39 280.472 132.684 280.221C133.019 279.969 133.564 279.802 134.318 279.802H138.216C138.886 279.802 139.264 280.137 139.264 280.85C139.264 281.059 139.222 281.269 139.18 281.52C139.138 281.772 139.054 282.107 138.886 282.568L128.786 314.966C128.534 315.804 128.241 316.349 127.906 316.6C127.57 316.852 127.025 317.019 126.313 317.019H122.709C121.912 317.019 121.367 316.894 121.032 316.6C120.697 316.307 120.403 315.762 120.236 314.924L113.739 287.891L107.285 314.882C107.075 315.72 106.824 316.265 106.489 316.558C106.153 316.852 105.567 316.977 104.812 316.977L101.208 316.977ZM155.064 318.109C152.885 318.109 150.706 317.858 148.61 317.355C146.514 316.852 144.88 316.307 143.79 315.678C143.12 315.301 142.658 314.882 142.491 314.505C142.323 314.127 142.239 313.708 142.239 313.331V311.194C142.239 310.314 142.575 309.894 143.203 309.894C143.455 309.894 143.706 309.936 143.958 310.02C144.209 310.104 144.586 310.272 145.006 310.439C146.431 311.068 147.981 311.571 149.616 311.906C151.292 312.241 152.927 312.409 154.603 312.409C157.244 312.409 159.297 311.948 160.722 311.026C162.147 310.104 162.902 308.763 162.902 307.044C162.902 305.871 162.525 304.907 161.77 304.111C161.016 303.314 159.591 302.602 157.537 301.931L151.46 300.045C148.4 299.081 146.137 297.656 144.754 295.77C143.371 293.926 142.659 291.872 142.659 289.693C142.659 287.933 143.036 286.382 143.79 285.041C144.545 283.7 145.55 282.526 146.808 281.604C148.065 280.64 149.49 279.928 151.167 279.425C152.843 278.922 154.603 278.712 156.447 278.712C157.37 278.712 158.333 278.754 159.256 278.88C160.219 279.005 161.1 279.173 161.98 279.341C162.818 279.55 163.614 279.76 164.369 280.011C165.123 280.263 165.71 280.514 166.129 280.766C166.716 281.101 167.135 281.436 167.386 281.814C167.638 282.149 167.764 282.61 167.764 283.197V285.167C167.764 286.047 167.428 286.508 166.8 286.508C166.464 286.508 165.92 286.34 165.207 286.005C162.818 284.915 160.136 284.37 157.16 284.37C154.771 284.37 152.885 284.747 151.586 285.544C150.286 286.34 149.616 287.555 149.616 289.274C149.616 290.447 150.035 291.453 150.873 292.25C151.711 293.046 153.262 293.842 155.484 294.555L161.435 296.441C164.453 297.405 166.632 298.746 167.931 300.464C169.231 302.183 169.859 304.153 169.859 306.332C169.859 308.134 169.482 309.769 168.77 311.194C168.015 312.619 167.009 313.876 165.71 314.882C164.411 315.93 162.86 316.684 161.058 317.229C159.172 317.816 157.202 318.109 155.064 318.109Z" fill="#252F3E"/>
<path fill-rule="evenodd" clip-rule="evenodd" d="M162.986 338.478C149.197 348.663 129.163 354.069 111.937 354.069C87.7961 354.069 66.0439 345.142 49.6145 330.305C48.3153 329.132 49.4888 327.539 51.0395 328.461C68.8101 338.772 90.7299 345.016 113.404 345.016C128.702 345.016 145.508 341.831 160.974 335.293C163.279 334.245 165.249 336.802 162.986 338.478Z" fill="#FF9900"/>
<path fill-rule="evenodd" clip-rule="evenodd" d="M168.728 331.94C166.967 329.677 157.076 330.85 152.592 331.395C151.25 331.563 151.041 330.389 152.256 329.509C160.136 323.977 173.086 325.569 174.595 327.414C176.104 329.3 174.176 342.25 166.8 348.453C165.668 349.417 164.578 348.914 165.081 347.657C166.758 343.508 170.488 334.161 168.728 331.94Z" fill="#FF9900"/>
<path d="M428.43 280.491C427.43 279.491 419.43 258.491 419.43 258.491L400.43 257.491L391.737 277.987L428.43 280.491Z" fill="#FFB6B6"/>
<path d="M401.474 267.166C415.599 267.166 427.05 255.715 427.05 241.59C427.05 227.465 415.599 216.015 401.474 216.015C387.35 216.015 375.899 227.465 375.899 241.59C375.899 255.715 387.35 267.166 401.474 267.166Z" fill="#FFB6B6"/>
<path d="M449.93 418.991L458.93 448.991L434.93 622.991H418.682L409.93 491.991L399.93 536.991L450.93 601.991L437.93 616.991L364.43 545.491L365.93 434.991L371.93 417.991L449.93 418.991Z" fill="#2F2E41"/>
<path d="M422.916 262.6L420.919 262.698C420.919 262.698 419.132 246.767 418.084 245.817C417.036 244.868 415.137 246.964 415.137 246.964C415.137 246.964 406.901 242.364 406.655 237.37C406.409 232.376 406.212 228.381 403.216 228.528C400.219 228.676 383.437 233.507 379.442 233.704C375.446 233.901 369.109 227.205 375.806 220.868C382.502 214.53 388.396 212.238 389.346 211.19C390.295 210.142 396.547 205.829 402.009 209.565C407.472 213.3 414.463 212.956 414.463 212.956C414.463 212.956 427.595 215.313 425.893 221.404C424.19 227.495 430.773 239.185 428.072 245.325C425.371 251.466 422.916 262.6 422.916 262.6Z" fill="#2F2E41"/>
<path d="M417.931 619.991L435.931 621.991L437.931 654.991C437.931 654.991 436.931 670.991 419.931 668.991C402.931 666.991 407.93 650.991 407.93 650.991L417.931 619.991Z" fill="#2F2E41"/>
<path d="M441.43 596.491C441.43 596.491 454.43 590.491 456.43 597.491L460.43 611.491C460.43 611.491 460.43 625.491 461.43 626.491C462.43 627.491 481.43 653.491 464.43 667.491C464.43 667.491 455.43 668.491 450.43 654.491C445.43 640.491 430.43 626.491 430.43 626.491C430.43 626.491 427.525 619.491 432.478 619.991C437.43 620.491 444.43 608.491 442.43 604.491C440.43 600.491 441.43 596.491 441.43 596.491Z" fill="#2F2E41"/>
<path d="M276.329 465.845C271.676 463.886 270.401 456.371 273.481 449.058C274.672 446.12 276.548 443.51 278.954 441.445L282.548 433.202L282.42 433.115L292.753 391.933C295.156 382.357 301.771 374.279 310.856 370.415C316.26 368.117 321.388 367.701 322.879 373.208C325.354 382.346 309.237 411.78 299.52 428.341L291.949 446.919C292.153 450.083 291.597 453.251 290.326 456.156C287.248 463.467 280.981 467.805 276.329 465.845Z" fill="#FFB6B6"/>
<path d="M392.43 274.491L425.43 275.491L457.43 289.491L452.43 372.491C452.43 372.491 458.43 391.491 455.43 394.491C452.43 397.491 455.43 410.94 453.43 411.215C451.43 411.491 453.43 425.955 453.43 425.955C453.43 425.955 425.43 416.491 401.43 422.491C377.43 428.491 369.43 418.491 369.43 418.491C369.43 418.491 363.43 394.491 363.43 389.491V287.247L392.43 274.491Z" fill="#2563EB"/>
<path d="M368.93 286.991C368.93 286.991 354.93 282.991 347.93 292.991C340.93 302.991 336.93 302.991 336.93 315.991C336.93 315.991 295.93 373.991 297.93 379.991L288.43 395.491L312.43 408.491C312.43 408.491 320.93 399.991 320.93 391.991C320.93 383.991 344.93 361.991 344.93 361.991C344.93 361.991 365.93 334.991 366.93 324.991C367.93 314.991 368.93 286.991 368.93 286.991Z" fill="#2563EB"/>
<path d="M492.23 470.944H629.899C653.222 470.944 672.129 489.851 672.129 513.174V623.607C672.129 646.93 653.222 665.837 629.899 665.837H492.23C468.907 665.837 450 646.93 450 623.607V513.174C450 489.851 468.907 470.944 492.23 470.944Z" fill="white"/>
<path d="M448 622.607V512.175C448 488.338 467.393 468.945 491.23 468.945H628.899C652.736 468.945 672.129 488.338 672.129 512.175V622.607C672.129 646.444 652.736 665.837 628.899 665.837H491.23C467.393 665.837 448 646.444 448 622.607ZM491.23 470.945C468.496 470.945 450 489.44 450 512.175V622.607C450 645.342 468.496 663.837 491.23 663.837H628.899C651.633 663.837 670.129 645.342 670.129 622.607V512.175C670.129 489.44 651.633 470.945 628.899 470.945H491.23Z" fill="#3F3D56"/>
<path d="M578.589 548.156H581.986L591.668 538.474L592.143 534.363C574.124 518.459 546.623 520.173 530.719 538.193C526.301 543.198 523.094 549.152 521.346 555.596C522.425 555.154 523.62 555.082 524.743 555.392L544.107 552.198C544.107 552.198 545.092 550.568 545.602 550.67C554.216 541.21 568.711 540.107 578.656 548.156L578.589 548.156Z" fill="#EA4335"/>
<path d="M605.46 555.596C603.235 547.401 598.665 540.033 592.313 534.397L578.724 547.986C584.462 552.675 587.731 559.737 587.591 567.146V569.558C594.27 569.558 599.685 574.973 599.685 581.652C599.685 588.331 594.27 593.746 587.591 593.746H563.403L560.991 596.192V610.698L563.403 613.11H587.591C604.964 613.245 619.158 599.271 619.293 581.898C619.375 571.368 614.183 561.495 605.46 555.596Z" fill="#4285F4"/>
<path d="M539.181 612.974H563.369V593.61H539.181C537.458 593.61 535.755 593.239 534.188 592.523L530.79 593.576L521.04 603.258L520.191 606.655C525.659 610.784 532.33 613.004 539.181 612.974Z" fill="#34A853"/>
<path d="M539.181 550.16C521.808 550.264 507.808 564.432 507.912 581.805C507.97 591.507 512.501 600.639 520.191 606.553L534.221 592.523C528.135 589.773 525.429 582.609 528.18 576.522C530.93 570.435 538.093 567.73 544.18 570.48C546.862 571.692 549.01 573.84 550.222 576.522L564.252 562.492C558.283 554.688 549.007 550.125 539.181 550.16Z" fill="#FBBC05"/>
<path d="M477.513 488.474C482.555 488.209 486.304 481.574 485.889 473.649C485.767 470.482 484.887 467.389 483.325 464.631L482.742 455.657L482.892 455.619L487.149 413.374C488.139 403.551 484.658 393.708 477.424 386.99C473.12 382.994 468.437 380.862 465.166 385.536C459.737 393.292 464.907 426.449 468.427 445.325L469.244 465.369C467.977 468.276 467.426 471.445 467.635 474.609C468.049 482.531 472.472 488.738 477.513 488.474Z" fill="#FFB6B6"/>
<path d="M451.109 288.807C451.109 288.807 465.636 289.796 468.827 301.578C472.017 313.36 475.78 314.718 471.368 326.946C471.368 326.946 490.25 395.419 486.332 400.384L490.008 418.188L463.02 422.271C463.02 422.271 457.909 411.391 460.624 403.866C463.34 396.34 448.231 367.501 448.231 367.501C448.231 367.501 437.641 334.976 440.094 325.23C442.547 315.484 451.109 288.807 451.109 288.807Z" fill="#2563EB"/>
</g>
<defs>
<linearGradient id="paint0_linear_1_96" x1="229.939" y1="508.573" x2="197.916" y2="603.178" gradientUnits="userSpaceOnUse">
<stop stop-color="#114A8B"/>
<stop offset="1" stop-color="#0669BC"/>
</linearGradient>
<linearGradient id="paint1_linear_1_96" x1="239.942" y1="552.66" x2="232.535" y2="555.165" gradientUnits="userSpaceOnUse">
<stop stop-opacity="0.3"/>
<stop offset="0.071" stop-opacity="0.2"/>
<stop offset="0.321" stop-opacity="0.1"/>
<stop offset="0.623" stop-opacity="0.05"/>
<stop offset="1" stop-opacity="0"/>
</linearGradient>
<linearGradient id="paint2_linear_1_96" x1="236.099" y1="505.727" x2="271.251" y2="599.379" gradientUnits="userSpaceOnUse">
<stop stop-color="#3CCBF4"/>
<stop offset="1" stop-color="#2892DF"/>
</linearGradient>
<clipPath id="clip0_1_96">
<rect width="672.129" height="669.164" fill="white"/>
</clipPath>
</defs>
</svg>
